<?xml version="1.0" standalone="no"?>
<!DOCTYPE svg PUBLIC "-//W3C//DTD SVG 20010904//EN"
 "http://www.w3.org/TR/2001/REC-SVG-20010904/DTD/svg10.dtd">
<svg version="1.0" xmlns="http://www.w3.org/2000/svg"
 width="740.000000pt" height="740.000000pt" viewBox="0 0 740.000000 740.000000"
 preserveAspectRatio="xMidYMid meet">

<g transform="translate(0.000000,740.000000) scale(0.100000,-0.100000)"
fill="#000000" stroke="none">
<path d="M3500 7069 c-817 -45 -1596 -394 -2180 -979 -265 -264 -448 -514
-620 -843 -221 -425 -344 -881 -370 -1381 -50 -975 321 -1914 1028 -2598 769
-745 1846 -1077 2912 -898 1110 187 2062 928 2519 1962 353 797 384 1701 87
2521 -224 618 -625 1154 -1163 1558 -156 117 -290 200 -488 300 -430 218 -852
331 -1341 359 -183 11 -185 11 -384 -1z m-975 -1657 c166 -78 257 -249 233
-435 -17 -128 -110 -251 -235 -310 -62 -28 -77 -31 -168 -32 -92 0 -105 3
-166 32 -161 79 -260 265 -230 435 28 163 141 293 290 335 78 22 198 11 276
-25z m2280 -1116 c107 -37 180 -77 259 -142 88 -72 148 -150 201 -259 82 -167
78 -120 82 -1012 2 -436 1 -804 -3 -818 l-6 -25 -332 2 -331 3 -5 665 c-5 652
-5 666 -27 717 -68 168 -175 258 -338 285 -183 31 -399 -75 -487 -238 -56
-104 -58 -122 -58 -806 l0 -628 -335 0 -335 0 0 1135 0 1135 335 0 335 0 0
-156 0 -156 38 49 c106 133 262 228 442 268 48 11 120 14 275 12 199 -3 214
-5 290 -31z m-2107 -1123 l2 -1133 -340 0 -340 0 0 1135 0 1135 338 -2 337 -3
3 -1132z"/>
</g>
</svg>
